<?xml version="1.0" encoding="UTF-8" standalone="no"?>
<!-- Generator: Adobe Illustrator 16.2.1, SVG Export Plug-In . SVG Version: 6.00 Build 0)  -->

<svg
   version="1.1"
   id="Layer_1"
   x="0px"
   y="0px"
   width="77.875px"
   height="88.858px"
   viewBox="31.062 15.571 77.875 88.858"
   enable-background="new 31.062 15.571 77.875 88.858"
   xml:space="preserve"
   sodipodi:docname="brainstorm-logo-new.svg"
   inkscape:version="1.1 (c68e22c387, 2021-05-23)"
   xmlns:inkscape="http://www.inkscape.org/namespaces/inkscape"
   xmlns:sodipodi="http://sodipodi.sourceforge.net/DTD/sodipodi-0.dtd"
   xmlns="http://www.w3.org/2000/svg"
   xmlns:svg="http://www.w3.org/2000/svg"><defs
   id="defs113"><inkscape:path-effect
   effect="bspline"
   id="path-effect10703"
   is_visible="true"
   lpeversion="1"
   weight="33.333333"
   steps="2"
   helper_size="0"
   apply_no_weight="true"
   apply_with_weight="true"
   only_selected="false" /><inkscape:path-effect
   effect="bspline"
   id="path-effect11242"
   is_visible="true"
   lpeversion="1"
   weight="33.333333"
   steps="2"
   helper_size="0"
   apply_no_weight="true"
   apply_with_weight="true"
   only_selected="false" /><inkscape:path-effect
   effect="bspline"
   id="path-effect11378"
   is_visible="true"
   lpeversion="1"
   weight="33.333333"
   steps="2"
   helper_size="0"
   apply_no_weight="true"
   apply_with_weight="true"
   only_selected="false" />
	
</defs><sodipodi:namedview
   id="namedview111"
   pagecolor="#aaaaaa"
   bordercolor="#666666"
   borderopacity="1.0"
   inkscape:pageshadow="2"
   inkscape:pageopacity="0.86666667"
   inkscape:pagecheckerboard="true"
   showgrid="false"
   inkscape:zoom="13.878257"
   inkscape:cx="44.061728"
   inkscape:cy="28.065483"
   inkscape:window-width="1920"
   inkscape:window-height="1017"
   inkscape:window-x="-8"
   inkscape:window-y="-8"
   inkscape:window-maximized="1"
   inkscape:current-layer="Layer_1"
   showguides="true"
   inkscape:guide-bbox="true"><sodipodi:guide
     position="-4.8912661,88.858"
     orientation="0,-1"
     id="guide20000" /><sodipodi:guide
     position="-4.8912661,88.857999"
     orientation="0,-1"
     id="guide20002" /><sodipodi:guide
     position="3.3117948,87.38043"
     orientation="0,-1"
     id="guide20004" /><sodipodi:guide
     position="1.5285207,87.380429"
     orientation="1,0"
     id="guide20006" /><sodipodi:guide
     position="5.4517237,1.3756685"
     orientation="0,-1"
     id="guide20008" /><sodipodi:guide
     position="76.578886,7.5916525"
     orientation="1,0"
     id="guide20010" /></sodipodi:namedview>
<g
   id="g106"
   transform="matrix(0.96489433,0,0,0.96856169,2.6014894,1.9583543)">
		<path
   fill="#ffffff"
   d="m 88.174,55.016 c 0,20.938 -15.693,49.413 -28.556,49.413 -12.861,0 -28.556,-28.475 -28.556,-49.413 0,-19.409 12.785,-32.428 28.556,-32.428 15.774,0 28.556,13.019 28.556,32.428 z M 98.07,15.571 c -5.999,0 -10.863,4.864 -10.863,10.863 0,6 4.863,10.864 10.863,10.864 5.998,0 10.867,-4.863 10.867,-10.864 0.001,-5.999 -4.869,-10.863 -10.867,-10.863 z"
   id="path104" />
	</g>
<g
   id="g19798"
   transform="matrix(0.71404873,0,0,0.83680076,86.630596,13.476574)"><path
     style="fill:none;fill-rule:evenodd;stroke:#f31642;stroke-opacity:1"
     id="path9469"
     sodipodi:type="arc"
     sodipodi:cx="14.862385"
     sodipodi:cy="17.192659"
     sodipodi:rx="14.311926"
     sodipodi:ry="12.385321"
     sodipodi:start="2.8858695"
     sodipodi:end="1.0540345"
     sodipodi:arc-type="arc"
     sodipodi:open="true"
     d="M 1.0158737,20.325466 A 14.311926,12.385321 0 0 1 10.052644,5.527685 14.311926,12.385321 0 0 1 27.872933,12.032407 14.311926,12.385321 0 0 1 21.933441,27.96075" /><path
     style="fill:none;fill-rule:evenodd;stroke:#f31642;stroke-opacity:1"
     id="path9469-1"
     sodipodi:type="arc"
     sodipodi:cx="14.861419"
     sodipodi:cy="16.174934"
     sodipodi:rx="10.085312"
     sodipodi:ry="8.7276745"
     sodipodi:start="2.8858695"
     sodipodi:end="1.0540345"
     sodipodi:arc-type="arc"
     sodipodi:open="true"
     d="M 5.1040748,18.382557 A 10.085312,8.7276745 0 0 1 11.472096,7.9548728 10.085312,8.7276745 0 0 1 24.029677,12.538614 10.085312,8.7276745 0 0 1 19.844242,23.762981" /><path
     style="fill:none;fill-rule:evenodd;stroke:#f31642;stroke-opacity:1"
     id="path9469-1-9"
     sodipodi:type="arc"
     sodipodi:cx="14.85984"
     sodipodi:cy="15.882768"
     sodipodi:rx="5.1538668"
     sodipodi:ry="4.4600773"
     sodipodi:start="2.8858695"
     sodipodi:end="1.0540345"
     sodipodi:arc-type="arc"
     sodipodi:open="true"
     d="m 9.8735741,17.010922 a 5.1538668,4.4600773 0 0 1 3.2542309,-5.328828 5.1538668,4.4600773 0 0 1 6.417263,2.342416 5.1538668,4.4600773 0 0 1 -2.13887,5.735954" /><path
     style="fill:none;fill-rule:evenodd;stroke:#f31642;stroke-opacity:1"
     id="path9469-1-9-7"
     sodipodi:type="arc"
     sodipodi:cx="14.936707"
     sodipodi:cy="16.349878"
     sodipodi:rx="1.5049326"
     sodipodi:ry="1.3023456"
     sodipodi:start="3.1365714"
     sodipodi:end="0.40581948"
     sodipodi:arc-type="arc"
     sodipodi:open="true"
     d="m 13.431793,16.356418 a 1.5049326,1.3023456 0 0 1 0.930428,-1.210261 1.5049326,1.3023456 0 0 1 1.646134,0.289361 1.5049326,1.3023456 0 0 1 0.311052,1.42849" /><path
     style="fill:none;stroke:#f31642;stroke-width:1px;stroke-linecap:butt;stroke-linejoin:miter;stroke-opacity:1"
     d="m 16.733945,24.036697 c 0.674023,0.01226 1.346584,0.02448 1.879761,-0.0271 0.533178,-0.05158 0.927101,-0.166771 1.32038,-0.28177"
     id="path10701"
     inkscape:path-effect="#path-effect10703"
     inkscape:original-d="m 16.733945,24.036697 c 0.673783,0.02547 1.346566,0.02547 2.018349,0.0367 0.394938,-0.114192 0.788861,-0.229379 1.181792,-0.345569"
     sodipodi:nodetypes="ccc" /><path
     style="fill:none;stroke:#f31642;stroke-width:1px;stroke-linecap:butt;stroke-linejoin:miter;stroke-opacity:1"
     d="m 5.1040748,18.382557 c 0.06987,0.212222 0.1393449,0.423244 0.5931162,0.687894 0.4537713,0.26465 1.2909772,0.583648 3.1001556,0.742926 1.8091784,0.159279 4.5903234,0.159279 6.2100284,0.116678 1.619704,-0.0426 2.078013,-0.127652 2.535542,-0.21256"
     id="path11240"
     inkscape:path-effect="#path-effect11242"
     inkscape:original-d="m 5.1040748,18.382557 c 0.070475,0.212023 0.1399501,0.423045 0.2084252,0.633068 0.8382563,0.320017 1.6754623,0.639014 2.5117187,0.957031 2.7823063,10e-4 5.5634513,10e-4 8.3437503,0 0.459324,-0.08405 0.917632,-0.169107 1.374948,-0.255161"
     sodipodi:nodetypes="ccccc" /><path
     style="fill:none;stroke:#f31642;stroke-width:1px;stroke-linecap:butt;stroke-linejoin:miter;stroke-opacity:1"
     d="m 13.431793,16.356418 c -0.0085,2.668622 -0.01703,5.336302 -0.01606,6.810679 9.69e-4,1.474377 0.01139,1.755813 0.501504,2.307843 0.49011,0.55203 1.458841,1.374931 2.242743,1.848555 0.783902,0.473624 1.382849,0.598622 2.236936,0.647968 0.854086,0.04934 1.963439,0.0233 2.628104,0.0024 0.664664,-0.02089 0.88466,-0.03657 1.103737,-0.05219"
     id="path11376"
     inkscape:path-effect="#path-effect11378"
     inkscape:original-d="m 13.431793,16.356418 c 10e-4,2.668652 -0.01603,5.336305 -0.02554,8.002957 0.0062,0.282256 0.02183,0.5635 0.03125,0.84375 0.969769,0.823933 1.9385,1.646833 2.90625,2.46875 0.59997,0.126002 1.198917,0.251 1.796875,0.375 1.110397,-0.02504 2.21975,-0.05108 3.328125,-0.07813 0.221006,-0.01469 0.441002,-0.03037 0.660003,-0.04706"
     sodipodi:nodetypes="ccccccc" /></g></svg>
